<?xml version="1.0" encoding="UTF-8" standalone="no"?><svg xmlns="http://www.w3.org/2000/svg" xmlns:xlink="http://www.w3.org/1999/xlink" contentScriptType="application/ecmascript" contentStyleType="text/css" height="748px" preserveAspectRatio="none" style="width:1114px;height:748px;" version="1.1" viewBox="0 0 1114 748" width="1114px" zoomAndPan="magnify"><defs><filter height="300%" id="f9s31suvynxz4" width="300%" x="-1" y="-1"><feGaussianBlur result="blurOut" stdDeviation="2.0"/><feColorMatrix in="blurOut" result="blurOut2" type="matrix" values="0 0 0 0 0 0 0 0 0 0 0 0 0 0 0 0 0 0 .4 0"/><feOffset dx="4.0" dy="4.0" in="blurOut2" result="blurOut3"/><feBlend in="SourceGraphic" in2="blurOut3" mode="normal"/></filter></defs><g><!--MD5=[ef4f522e609a3b7f5715e60b83f48440]
cluster Daten--><polygon fill="#FFFFFF" filter="url(#f9s31suvynxz4)" points="715,161,767,161,774,183.2969,1092,183.2969,1092,232,715,232,715,161" style="stroke: #000000; stroke-width: 1.5;"/><line style="stroke: #000000; stroke-width: 1.5;" x1="715" x2="774" y1="183.2969" y2="183.2969"/><text fill="#000000" font-family="sans-serif" font-size="14" font-weight="bold" lengthAdjust="spacingAndGlyphs" textLength="46" x="719" y="175.9951">Daten</text><!--MD5=[524c0ce5e07ef87dd7309a63e4af6a7c]
cluster Radentscheid--><path d="M31.9042,31.9213 C42.1174,6.2014 63.5378,3.4062 81.5485,23.4653 C98.3305,4.5959 116.1793,4.7807 129.8517,27.1111 C142.3327,3.1527 157.3397,5.3443 174.2185,22.3477 C189.3455,-3.8054 209.6144,1.8009 224.5866,22.5141 C236.6121,1.8368 257.4742,4.2345 267.8961,24.222 C281.1836,0.8061 300.9248,-1.2064 318.5423,19.22 C331.2078,-3.5216 348.1783,-3.7047 364.3461,15.3853 C379.7148,-3.2707 397.2284,-6.6669 409.035,18.9785 C427.7613,-5.3042 443.2574,1.6295 457.8901,23.328 C471.4538,3.3808 491.6181,2.6576 505.0359,23.4965 C520.3476,-2.516 544.3107,-1.928 557.3032,25.754 C572.9689,8.5741 585.6847,10.506 598.3122,29.2247 C610.4787,7.5201 627.6156,5.9724 644.6856,23.4163 C666.4467,-0.4705 684.0731,5.941 699,31 C700.3186,31.7083 700.7634,32.6267 699.4091,33.7348 C722.1541,48.3724 721.618,63.2657 700.7074,79.1512 C730.8654,91.3426 734.9792,111.8292 709.1234,132.8064 C726.1977,147.297 725.39,169.6339 702.09,177.8154 C726.633,191.3013 731.5687,210.4173 706.3568,228.1231 C729.4881,242.2522 723.6772,262.5167 704.2329,274.7044 C723.3858,284.1808 729.8463,298.9372 711.2309,314.9765 C731.3233,333.4301 735.739,349.4041 709.1777,365.9794 C730.401,382.666 726.2197,399.5834 704.6659,412.0838 C731.204,426.2865 727.3325,447.5865 705.2628,462.3662 C727.7643,476.0244 730.4749,495.774 707.1277,511.1837 C728.7248,528.3798 728.3366,543.6613 703.068,556.6751 C723.2697,570.5434 722.6554,586.191 702.4319,599.4583 C730.3458,614.177 726.0457,636.2298 704.7916,653.1109 C723.9729,675.1244 715.3376,688.8387 692,699 C698.3457,697.5697 700.6237,700.0373 699.0425,706.2777 C685.1396,733.0456 663.1146,735.7419 647.2618,708.1346 C634.5003,725.6584 615.1487,726.0059 605.3897,704.8815 C590.7017,733.4776 565.8185,727.3116 550.6503,705.402 C537.7623,727.1358 522.7742,726.1409 507.6603,707.7891 C493.1957,731.5747 471.4946,724.6608 460.7199,703.9008 C449.0822,731.678 432.2428,729.3427 413.5115,711.1922 C394.5865,736.8697 374.0966,730.3491 361.0134,705.1628 C349.1235,728.598 333.2198,728.9289 316.3416,710.4835 C303.2078,733.173 281.6269,728.278 271.3961,707.483 C254.6989,731.191 234.4766,729.0728 220.2524,704.8445 C204.8098,722.8777 186.7795,723.1872 173.8214,701.9099 C163.46,726.9626 145.1614,729.6235 129.3854,706.9513 C113.8359,730.4123 91.6445,725.7445 81.5322,701.4976 C61.0363,731.058 32.8895,722.6539 22,692 C24.8751,689.55 27.1281,690.5959 28.3439,693.8466 C7.2252,681.3197 3.7742,665.6515 26.0355,650.7985 C-1.6578,636.119 -1.4485,612.1697 26.7061,598.2022 C5.7567,589.6513 -0.4276,568.3529 19.7424,553.4093 C0.7581,541.1049 -3.0564,519.4514 20.1483,507.5201 C-3.3489,496.1359 -3.6141,472.7108 17.5872,458.9688 C0.0023,443.4248 1.1405,426.5662 23.6621,416.8 C1.2577,403.3957 -2.4681,384.4282 17.9706,366.2043 C-6.6942,354.4954 -0.5524,332.0855 18.5939,320.9803 C-3.4429,306.2499 -1.2963,290.8642 17.3249,275.0114 C-5.9155,256.5142 -0.5244,234.0472 24.373,221.9433 C3.952,212.3478 5.3005,191.7866 21.8807,179.993 C-1.4835,164.5102 -0.0353,149.6569 21.1683,133.4914 C-3.9735,118.8829 1.6328,96.0208 23.3417,83.4469 C-7.5155,65.087 1.377,36.7935 29,24 C33.0575,24.8436 34.4737,28.648 31.9042,31.9213 " fill="#FFFFFF" style="stroke: #000000; stroke-width: 1.5;"/><text fill="#000000" font-family="sans-serif" font-size="14" font-weight="bold" lengthAdjust="spacingAndGlyphs" textLength="107" x="307" y="41.9951">Radentscheid</text><!--MD5=[a6b05d0ea0a2b6c769e2d02ce29923b8]
cluster Flaechenvergleich--><polygon fill="#FFFFFF" filter="url(#f9s31suvynxz4)" points="256,43,406,43,413,65.2969,613,65.2969,613,504,256,504,256,43" style="stroke: #000000; stroke-width: 1.5;"/><line style="stroke: #000000; stroke-width: 1.5;" x1="256" x2="413" y1="65.2969" y2="65.2969"/><text fill="#000000" font-family="sans-serif" font-size="14" font-weight="bold" lengthAdjust="spacingAndGlyphs" textLength="144" x="260" y="57.9951">Flaechenvergleich</text><!--MD5=[58e8d77f4124e5ae9702536bb5978f12]
cluster Datenbank--><path d="M22,623 C22,613 360.5,613 360.5,613 C360.5,613 699,613 699,623 L699,689 C699,699 360.5,699 360.5,699 C360.5,699 22,699 22,689 L22,623 " fill="#FFFFFF" filter="url(#f9s31suvynxz4)" style="stroke: #000000; stroke-width: 1.5;"/><path d="M22,623 C22,633 360.5,633 360.5,633 C360.5,633 699,633 699,623 " fill="none" style="stroke: #000000; stroke-width: 1.5;"/><text fill="#000000" font-family="sans-serif" font-size="14" font-weight="bold" lengthAdjust="spacingAndGlyphs" textLength="84" x="318.5" y="647.9951">Datenbank</text><!--MD5=[608c237dc487c41a490b58879b12c70c]
entity OpenStreetmap Rohdaten--><rect fill="#0000FF" filter="url(#f9s31suvynxz4)" height="36.2969" style="stroke: #A80036; stroke-width: 1.5;" width="202" x="723" y="188"/><rect fill="#0000FF" height="5" style="stroke: #A80036; stroke-width: 1.5;" width="10" x="718" y="193"/><rect fill="#0000FF" height="5" style="stroke: #A80036; stroke-width: 1.5;" width="10" x="718" y="214.2969"/><text fill="#000000" font-family="sans-serif" font-size="14" lengthAdjust="spacingAndGlyphs" textLength="182" x="733" y="210.9951">OpenStreetmap Rohdaten</text><!--MD5=[98e19ea4d963b5498f69666e7deaa4e5]
entity Alkis Rohdaten--><rect fill="#008000" filter="url(#f9s31suvynxz4)" height="36.2969" style="stroke: #A80036; stroke-width: 1.5;" width="123" x="960.5" y="188"/><rect fill="#008000" height="5" style="stroke: #A80036; stroke-width: 1.5;" width="10" x="955.5" y="193"/><rect fill="#008000" height="5" style="stroke: #A80036; stroke-width: 1.5;" width="10" x="955.5" y="214.2969"/><text fill="#000000" font-family="sans-serif" font-size="14" lengthAdjust="spacingAndGlyphs" textLength="103" x="970.5" y="210.9951">Alkis Rohdaten</text><!--MD5=[2965bc47d9a3d7495510c5988bb124d8]
entity Rest Interface--><rect fill="#FEFECE" filter="url(#f9s31suvynxz4)" height="36.2969" style="stroke: #A80036; stroke-width: 1.5;" width="116" x="64" y="460"/><rect fill="#FEFECE" height="5" style="stroke: #A80036; stroke-width: 1.5;" width="10" x="59" y="465"/><rect fill="#FEFECE" height="5" style="stroke: #A80036; stroke-width: 1.5;" width="10" x="59" y="486.2969"/><text fill="#000000" font-family="sans-serif" font-size="14" lengthAdjust="spacingAndGlyphs" textLength="96" x="74" y="482.9951">Rest Interface</text><!--MD5=[0bf8cd403f6786843aacd56780369d39]
entity Web Frontend--><rect fill="#FEFECE" filter="url(#f9s31suvynxz4)" height="36.2969" style="stroke: #A80036; stroke-width: 1.5;" width="118" x="63" y="285"/><rect fill="#FEFECE" height="5" style="stroke: #A80036; stroke-width: 1.5;" width="10" x="58" y="290"/><rect fill="#FEFECE" height="5" style="stroke: #A80036; stroke-width: 1.5;" width="10" x="58" y="311.2969"/><text fill="#000000" font-family="sans-serif" font-size="14" lengthAdjust="spacingAndGlyphs" textLength="98" x="73" y="307.9951">Web Frontend</text><!--MD5=[d3f8ea0914d4521d8c44bdecb5aa57cc]
entity Alkis Importer--><rect fill="#0000FF" filter="url(#f9s31suvynxz4)" height="36.2969" style="stroke: #A80036; stroke-width: 1.5;" width="113" x="491.5" y="70"/><rect fill="#0000FF" height="5" style="stroke: #A80036; stroke-width: 1.5;" width="10" x="486.5" y="75"/><rect fill="#0000FF" height="5" style="stroke: #A80036; stroke-width: 1.5;" width="10" x="486.5" y="96.2969"/><text fill="#000000" font-family="sans-serif" font-size="14" lengthAdjust="spacingAndGlyphs" textLength="93" x="501.5" y="92.9951">Alkis Importer</text><!--MD5=[096bca88fb72853b65d6e03f6746c918]
entity OpenStreetmap Importer--><rect fill="#008000" filter="url(#f9s31suvynxz4)" height="36.2969" style="stroke: #A80036; stroke-width: 1.5;" width="192" x="264" y="70"/><rect fill="#008000" height="5" style="stroke: #A80036; stroke-width: 1.5;" width="10" x="259" y="75"/><rect fill="#008000" height="5" style="stroke: #A80036; stroke-width: 1.5;" width="10" x="259" y="96.2969"/><text fill="#000000" font-family="sans-serif" font-size="14" lengthAdjust="spacingAndGlyphs" textLength="172" x="274" y="92.9951">OpenStreetmap Importer</text><!--MD5=[8078f483e7fb5f132fc7b6cea5f691f6]
entity Flaechenvergleich Prozessor--><rect fill="#FEFECE" filter="url(#f9s31suvynxz4)" height="36.2969" style="stroke: #A80036; stroke-width: 1.5;" width="219" x="309.5" y="460"/><rect fill="#FEFECE" height="5" style="stroke: #A80036; stroke-width: 1.5;" width="10" x="304.5" y="465"/><rect fill="#FEFECE" height="5" style="stroke: #A80036; stroke-width: 1.5;" width="10" x="304.5" y="486.2969"/><text fill="#000000" font-family="sans-serif" font-size="14" lengthAdjust="spacingAndGlyphs" textLength="199" x="319.5" y="482.9951">Flaechenvergleich Prozessor</text><!--MD5=[12b9e4cd13c5c41ace7d0058c63043e3]
entity Alkis Daten--><rect fill="#0000FF" filter="url(#f9s31suvynxz4)" height="36.2969" style="stroke: #A80036; stroke-width: 1.5;" width="97" x="594.5" y="655"/><rect fill="#0000FF" height="5" style="stroke: #A80036; stroke-width: 1.5;" width="10" x="589.5" y="660"/><rect fill="#0000FF" height="5" style="stroke: #A80036; stroke-width: 1.5;" width="10" x="589.5" y="681.2969"/><text fill="#000000" font-family="sans-serif" font-size="14" lengthAdjust="spacingAndGlyphs" textLength="77" x="604.5" y="677.9951">Alkis Daten</text><!--MD5=[ca5d589aa130aaec2cd51843904b095b]
entity OpenStreetmap Daten--><rect fill="#008000" filter="url(#f9s31suvynxz4)" height="36.2969" style="stroke: #A80036; stroke-width: 1.5;" width="176" x="384" y="655"/><rect fill="#008000" height="5" style="stroke: #A80036; stroke-width: 1.5;" width="10" x="379" y="660"/><rect fill="#008000" height="5" style="stroke: #A80036; stroke-width: 1.5;" width="10" x="379" y="681.2969"/><text fill="#000000" font-family="sans-serif" font-size="14" lengthAdjust="spacingAndGlyphs" textLength="156" x="394" y="677.9951">OpenStreetmap Daten</text><!--MD5=[406f6690f794dd98dc3960b521fd1c1e]
entity Flaechenvergleich Daten--><rect fill="#FEFECE" filter="url(#f9s31suvynxz4)" height="36.2969" style="stroke: #A80036; stroke-width: 1.5;" width="191" x="157.5" y="655"/><rect fill="#FEFECE" height="5" style="stroke: #A80036; stroke-width: 1.5;" width="10" x="152.5" y="660"/><rect fill="#FEFECE" height="5" style="stroke: #A80036; stroke-width: 1.5;" width="10" x="152.5" y="681.2969"/><text fill="#000000" font-family="sans-serif" font-size="14" lengthAdjust="spacingAndGlyphs" textLength="171" x="167.5" y="677.9951">Flaechenvergleich Daten</text><!--MD5=[cc5d27d8fc07c1fc004526434b842af9]
entity Sonstige...--><rect fill="#FEFECE" filter="url(#f9s31suvynxz4)" height="36.2969" style="stroke: #A80036; stroke-width: 1.5;" width="93" x="29.5" y="655"/><rect fill="#FEFECE" height="5" style="stroke: #A80036; stroke-width: 1.5;" width="10" x="24.5" y="660"/><rect fill="#FEFECE" height="5" style="stroke: #A80036; stroke-width: 1.5;" width="10" x="24.5" y="681.2969"/><text fill="#000000" font-family="sans-serif" font-size="14" lengthAdjust="spacingAndGlyphs" textLength="73" x="39.5" y="677.9951">Sonstige...</text><!--MD5=[c3bcbcdd694c8f7fa0f536b659969686]
reverse link OpenStreetmap Importer to OpenStreetmap Rohdaten--><path d="M435.8991,107.3019 C523.7563,129.6449 667.3247,166.1558 753.0312,187.9519 " fill="none" id="OpenStreetmap Importer&lt;-OpenStreetmap Rohdaten" style="stroke: #008000; stroke-width: 1.0;"/><polygon fill="#008000" points="430.9767,106.0501,438.7131,112.1451,435.8224,107.2825,440.685,104.3919,430.9767,106.0501" style="stroke: #008000; stroke-width: 1.0;"/><text fill="#000000" font-family="sans-serif" font-size="13" lengthAdjust="spacingAndGlyphs" textLength="42" x="606" y="149.0669">Import</text><!--MD5=[34b207b458f409bf61a369d2108e5668]
link OpenStreetmap Importer to OpenStreetmap Daten--><path d="M373.2141,106.4077 C415.6783,167.0075 547.8152,367.2573 581,557 C588.3129,598.8132 547.6083,632.2113 513.8758,652.2393 " fill="none" id="OpenStreetmap Importer-&gt;OpenStreetmap Daten" style="stroke: #008000; stroke-width: 1.0;"/><polygon fill="#008000" points="509.3794,654.8556,519.1701,653.7865,513.701,652.3409,515.1466,646.8719,509.3794,654.8556" style="stroke: #008000; stroke-width: 1.0;"/><text fill="#000000" font-family="sans-serif" font-size="13" lengthAdjust="spacingAndGlyphs" textLength="64" x="535" y="395.0669">Speichern</text><!--MD5=[f30860983064e781b67049e261b0760d]
link OpenStreetmap Importer to Flaechenvergleich Prozessor--><path d="M343.6531,106.1181 C325.5842,128.0847 299,167.026 299,206 C299,206 299,206 299,390.5 C299,422.5613 327.3124,444.1206 356.4326,457.8158 " fill="none" id="OpenStreetmap Importer-&gt;Flaechenvergleich Prozessor" style="stroke: #A80036; stroke-width: 1.0; stroke-dasharray: 7.0,7.0;"/><polygon fill="#A80036" points="361.109,459.9466,354.5778,452.5748,356.5591,457.8733,351.2606,459.8546,361.109,459.9466" style="stroke: #A80036; stroke-width: 1.0;"/><text fill="#000000" font-family="sans-serif" font-size="13" lengthAdjust="spacingAndGlyphs" textLength="48" x="300" y="307.5669">Starten</text><!--MD5=[39970b6e5d4b59809b22db3f92ebd8fc]
reverse link Alkis Importer to Alkis Rohdaten--><path d="M609.6336,92.9628 C688.8093,100.7747 829.55,119.5535 943,161 C961.3841,167.7162 980.4935,178.484 995.3123,187.8026 " fill="none" id="Alkis Importer&lt;-Alkis Rohdaten" style="stroke: #0000FF; stroke-width: 1.0;"/><polygon fill="#0000FF" points="604.5084,92.464,613.0785,97.3171,609.4849,92.9484,613.8536,89.3548,604.5084,92.464" style="stroke: #0000FF; stroke-width: 1.0;"/><text fill="#000000" font-family="sans-serif" font-size="13" lengthAdjust="spacingAndGlyphs" textLength="42" x="913" y="149.0669">Import</text><!--MD5=[5d9db8f386d10b6fdc31c8450c79a731]
link Alkis Importer to Alkis Daten--><path d="M572.5855,106.3387 C597.6893,127.3636 633,164.3412 633,206 C633,206 633,206 633,351.5 C633,463.2568 639.1113,596.76 641.7789,649.7117 " fill="none" id="Alkis Importer-&gt;Alkis Daten" style="stroke: #0000FF; stroke-width: 1.0;"/><polygon fill="#0000FF" points="642.0412,654.8782,645.5796,645.6869,641.7876,649.8846,637.5899,646.0926,642.0412,654.8782" style="stroke: #0000FF; stroke-width: 1.0;"/><text fill="#000000" font-family="sans-serif" font-size="13" lengthAdjust="spacingAndGlyphs" textLength="64" x="634" y="395.0669">Speichern</text><!--MD5=[6adaa90e5eb79c0b1ea487d14b534477]
link Alkis Importer to Flaechenvergleich Prozessor--><path d="M504.686,106.0932 C467.2101,124.9761 419,158.4989 419,206 C419,206 419,206 419,390.5 C419,412.2516 419,437.0447 419,454.6721 " fill="none" id="Alkis Importer-&gt;Flaechenvergleich Prozessor" style="stroke: #A80036; stroke-width: 1.0; stroke-dasharray: 7.0,7.0;"/><polygon fill="#A80036" points="419,459.9013,423,450.9013,419,454.9013,415,450.9013,419,459.9013" style="stroke: #A80036; stroke-width: 1.0;"/><text fill="#000000" font-family="sans-serif" font-size="13" lengthAdjust="spacingAndGlyphs" textLength="48" x="420" y="307.5669">Starten</text><!--MD5=[4da03a439ed933b370b2ab11cd40c831]
reverse link Flaechenvergleich Prozessor to OpenStreetmap Daten--><path d="M425.3601,501.4004 C436.0549,540.7493 457.4156,619.3403 467.0657,654.8457 " fill="none" id="Flaechenvergleich Prozessor&lt;-OpenStreetmap Daten" style="stroke: #008000; stroke-width: 1.0;"/><polygon fill="#008000" points="423.9861,496.3451,422.4867,506.0792,425.2975,501.1701,430.2066,503.9809,423.9861,496.3451" style="stroke: #008000; stroke-width: 1.0;"/><text fill="#000000" font-family="sans-serif" font-size="13" lengthAdjust="spacingAndGlyphs" textLength="39" x="446" y="570.0669">Laden</text><!--MD5=[b73e1d04589271c5132437e354165d1a]
reverse link Flaechenvergleich Prozessor to Alkis Daten--><path d="M444.9741,499.49 C476.6896,525.8589 531.8139,572.1074 578,613 C593.6377,626.8454 611.005,642.9136 623.8509,654.9354 " fill="none" id="Flaechenvergleich Prozessor&lt;-Alkis Daten" style="stroke: #0000FF; stroke-width: 1.0;"/><polygon fill="#0000FF" points="440.8467,496.0608,445.213,504.8889,444.6925,499.2561,450.3254,498.7356,440.8467,496.0608" style="stroke: #0000FF; stroke-width: 1.0;"/><text fill="#000000" font-family="sans-serif" font-size="13" lengthAdjust="spacingAndGlyphs" textLength="39" x="533" y="570.0669">Laden</text><!--MD5=[269faea6cf9fdb3e24b0082e7c8ae0e2]
link Flaechenvergleich Prozessor to Flaechenvergleich Daten--><path d="M403.3831,496.3451 C372.7793,532.2954 305.0236,611.8879 271.9304,650.7625 " fill="none" id="Flaechenvergleich Prozessor-&gt;Flaechenvergleich Daten" style="stroke: #A80036; stroke-width: 1.0;"/><polygon fill="#A80036" points="268.4544,654.8457,277.3342,650.5855,271.6955,651.0384,271.2426,645.3998,268.4544,654.8457" style="stroke: #A80036; stroke-width: 1.0;"/><text fill="#000000" font-family="sans-serif" font-size="13" lengthAdjust="spacingAndGlyphs" textLength="64" x="352" y="570.0669">Speichern</text><!--MD5=[012dffdfca94c23443bfd19a1932df07]
link Rest Interface to Sonstige...--><path d="M110.853,496.0651 C101.8809,511.6007 89.838,534.9299 84,557 C75.6972,588.3879 74.6694,626.1232 75.0526,649.8408 " fill="none" id="Rest Interface-&gt;Sonstige..." style="stroke: #A80036; stroke-width: 1.0;"/><polygon fill="#A80036" points="75.1612,654.9727,78.9698,645.89,75.0553,649.9738,70.9716,646.0594,75.1612,654.9727" style="stroke: #A80036; stroke-width: 1.0;"/><text fill="#000000" font-family="sans-serif" font-size="13" lengthAdjust="spacingAndGlyphs" textLength="50" x="85" y="570.0669">Abfrage</text><!--MD5=[b052df079584f15920ea391f7a18fb7a]
link Rest Interface to Flaechenvergleich Daten--><path d="M134.3242,496.3451 C158.3776,532.1499 211.5128,611.2442 237.7424,650.2883 " fill="none" id="Rest Interface-&gt;Flaechenvergleich Daten" style="stroke: #A80036; stroke-width: 1.0;"/><polygon fill="#A80036" points="240.804,654.8457,239.1054,645.1444,238.0157,650.6953,232.4648,649.6056,240.804,654.8457" style="stroke: #A80036; stroke-width: 1.0;"/><text fill="#000000" font-family="sans-serif" font-size="13" lengthAdjust="spacingAndGlyphs" textLength="50" x="188" y="570.0669">Abfrage</text><!--MD5=[01e67231d5a6420b916ad6841d6ed205]
link Web Frontend to Rest Interface--><path d="M122,321.0689 C122,352.9002 122,418.9453 122,454.3568 " fill="none" id="Web Frontend-&gt;Rest Interface" style="stroke: #A80036; stroke-width: 1.0;"/><polygon fill="#A80036" points="122,459.7672,126,450.7672,122,454.7672,118,450.7672,122,459.7672" style="stroke: #A80036; stroke-width: 1.0;"/><text fill="#000000" font-family="sans-serif" font-size="13" lengthAdjust="spacingAndGlyphs" textLength="32" x="123" y="395.0669">HTTP</text><!--MD5=[edc1ba09841c4fa1174db6e6a893f6f1]
@startuml
folder "Daten" {
    [OpenStreetmap Rohdaten] #Blue
    [Alkis Rohdaten] #Green
}

cloud "Radentscheid" {


    package "Flaechenvergleich" {
        [Alkis Importer] #Blue
        [OpenStreetmap Importer] #Green
        [Flaechenvergleich Prozessor]

    }

    [Rest Interface]
    [Web Frontend]

    database "Datenbank" {
        [Alkis Daten] #Blue
        [OpenStreetmap Daten] #Green
        [Flaechenvergleich Daten]
        [Sonstige...]
    }

    [OpenStreetmap Importer] <-[#Green]- [OpenStreetmap Rohdaten] : Import
    [OpenStreetmap Importer] -[#Green]-> [OpenStreetmap Daten] : Speichern
    [OpenStreetmap Importer] ..> [Flaechenvergleich Prozessor] : Starten

    [Alkis Importer] <-[#Blue]- [Alkis Rohdaten] : Import
    [Alkis Importer] -[#Blue]-> [Alkis Daten] : Speichern
    [Alkis Importer] ..> [Flaechenvergleich Prozessor] : Starten

    [Flaechenvergleich Prozessor] <-[#Green]- [OpenStreetmap Daten] : Laden
    [Flaechenvergleich Prozessor] <-[#Blue]- [Alkis Daten] : Laden
    [Flaechenvergleich Prozessor] - -> [Flaechenvergleich Daten] : Speichern

    [Rest Interface] - -> [Sonstige...]: Abfrage
    [Rest Interface] - -> [Flaechenvergleich Daten]: Abfrage

    [Web Frontend] - -> [Rest Interface]: HTTP
}
@enduml

PlantUML version 1.2019.12(Sun Nov 03 10:24:54 UTC 2019)
(GPL source distribution)
Java Runtime: OpenJDK Runtime Environment
JVM: OpenJDK 64-Bit Server VM
Java Version: 1.8.0_232-heroku-b09
Operating System: Linux
Default Encoding: UTF-8
Language: en
Country: US
--></g></svg>